<?xml version="1.0" encoding="UTF-8"?>
<svg id="Layer_2" data-name="Layer 2" xmlns="http://www.w3.org/2000/svg" xmlns:xlink="http://www.w3.org/1999/xlink" viewBox="0 0 395 423.9">
  <defs>
    <style>
      .cls-1 {
        letter-spacing: .18em;
      }

      .cls-2 {
        fill: #58595b;
      }

      .cls-2, .cls-3, .cls-4, .cls-5, .cls-6 {
        stroke-width: 0px;
      }

      .cls-7 {
        opacity: .35;
      }

      .cls-8 {
        letter-spacing: .19em;
      }

      .cls-3 {
        fill: none;
      }

      .cls-9 {
        font-size: 30px;
        letter-spacing: 1.5em;
      }

      .cls-9, .cls-10 {
        font-family: Calibri, Calibri;
      }

      .cls-9, .cls-6, .cls-11 {
        fill: #414042;
      }

      .cls-4 {
        fill: #d2d2d2;
      }

      .cls-12 {
        letter-spacing: .2em;
      }

      .cls-5 {
        fill: #f7941d;
      }

      .cls-13 {
        letter-spacing: .1em;
      }

      .cls-14 {
        clip-path: url(#clippath);
      }

      .cls-10 {
        font-size: 16.23px;
      }

      .cls-15 {
        letter-spacing: .2em;
      }

      .cls-16 {
        letter-spacing: .13em;
      }

      .cls-17 {
        letter-spacing: .2em;
      }

      .cls-11 {
        font-family: Calibri-Bold, Calibri;
        font-size: 72.31px;
        font-weight: 700;
      }
    </style>
    <clipPath id="clippath">
      <circle class="cls-3" cx="197.5" cy="127.1" r="127.1"/>
    </clipPath>
  </defs>
  <g id="Layer_1-2" data-name="Layer 1">
    <g>
      <text class="cls-11" transform="translate(0 331.95)"><tspan x="0" y="0" textLength="393" lengthAdjust="spacingAndGlyphs">WHITE TIGER</tspan></text>
      <text class="cls-9" transform="translate(68.76 380.55)"><tspan x="0" y="0">CYBER</tspan></text>
      <g>
        <circle class="cls-4" cx="197.5" cy="126.73" r="118.67"/>
        <path class="cls-2" d="M143.64,84.33l6,53.16,34.37,29.18,61.55-1.84s23.58,5.44,23.18,4.24-26.38-61.5-26.38-61.5l-44.86-29.23-53.86,6Z"/>
        <path class="cls-5" d="M247.12,117.41c1.38,1.39-.12,3.89-.35,5.78-2.85,23.46-22.84,41.63-47.06,41.63-26.18,0-47.41-21.23-47.41-47.41,0-16.85,8.79-31.64,22.03-40.05,7.34-4.66,50.52,17.64,72.79,40.05Z"/>
        <g class="cls-7">
          <path class="cls-6" d="M180.31,77.61c-8.54,0-17.86,1.75-28.01,5.76-5.45,2.15-7.46,2.96-5.46,11.36,0,0,7.56-2.4,19.28-2.4,24.14,0,65.96,10.18,95.83,72.5,0,0-21.43-87.22-81.64-87.22h0Z"/>
        </g>
        <path class="cls-6" d="M200.93,102.64h-1.86c-4.31.46-7.66,4.11-7.66,8.54.22,4.09,3.34,6.34,5.37,6.81l-1.66,9.89c-.18,1.05.64,2.01,1.71,1.99l6.43-.08c1.05-.01,1.84-.96,1.67-2l-1.69-9.8c2.15-.22,5.53-3.1,5.37-6.81,0-4.43-3.36-8.08-7.66-8.54h0Z"/>
        <g class="cls-14">
          <path class="cls-6" d="M254.91,13.68c.64-6.33.64-10.24-1.6-10.16-1.79.07-4.24,2.39-6.63,6.34-7.42-3.12-15.2-5.55-23.26-7.22.94-10.53,2.66-18.26-.03-18.16-2.63.1-7.2,6.81-9.44,16.57C208.56.36,203.07,0,197.5,0,127.31,0,70.4,56.9,70.4,127.1c0,37.22,16,70.69,41.49,93.94-1.15-.1-1.94.14-2.33.87-2.08,3.91.26,11.35,27.68,17.11,17.93,9.68,38.46,15.17,60.27,15.17,70.19,0,127.1-56.9,127.1-127.1,0-49.54-28.34-92.45-69.69-113.42ZM192.56,233.1c18.36-9.3,34.09-22.6,34.35-25.66.34-4.01-27.07,15.95-51.95,23.39-19.74-4.25-37.88-14.07-52.49-28.69-9.11-9.11-16.36-19.6-21.56-30.98,18.34,18.13,55.38,28.42,60.05,26.16,5.51-2.66-30.1-18.69-41.94-43.17-9.68-20.01-19.35-42.08-25.58-48.03,1.01-5.04,2.37-9.99,4.09-14.8,8.77,6.96,18.09,8.69,25.18,8.69s11.79-1.67,11.79-1.67c0,0-2.46,22.13,9.93,44.76,13.61,24.85,39.3,33.54,62.1,33.54,9.47,0,18.44-1.5,25.83-3.96,3.21-1.07,6.3-1.53,9.26-1.53,3.85,0,7.48.79,10.82,2.07,11.99,10.58,6.95,29.94.6,44.35-16.54,10.2-35.63,15.67-55.56,15.67-1.65,0-3.3-.04-4.94-.12ZM149.9,87.65c2.8-.57,5.7-1.18,8.69-1.84,5.51-1.21,11.16-1.82,16.77-1.82,15.42,0,30.53,4.5,43.72,13.02,12.24,7.91,21.68,18.65,26.57,30.25,4.56,10.81,7.95,22.27,10.44,32.6-4.76-1.67-9.6-2.52-14.45-2.52h0c-4.57,0-9.15.75-13.62,2.24-6.3,2.1-13.92,3.26-21.47,3.26-10.38,0-20.24-2.11-28.52-6.09-9.35-4.5-16.58-11.32-21.49-20.29-9.73-17.77-8.41-35.55-8.32-36.64l1.68-12.17ZM288.79,181.28c-9.98-5.37-16.51-17.86-18.95-23.25-2.67-11.3-6.38-24.03-11.48-36.12-11.95-28.33-45.17-51.7-82.99-51.7-6.47,0-13.07.68-19.72,2.14-24.92,5.46-42.7,7.68-53.72,8.56,5.11-10.56,12.01-20.3,20.55-28.84,4.65-4.65,9.65-8.8,14.95-12.46-1.07,7.12,1.94,13.36,27.81,13.15,37.91-.31,56.91,21.39,60.86,15.64,8.24-11.97-20.03-24.73-21.97-47.2,3.16.19,6.29.52,9.39.99,2.39,12.91,9.02,22.44,12.16,22.32,3.06-.12-.29-8.19-1.94-20.26,5.47,1.39,10.8,3.21,15.96,5.44-.82,4.64-1.24,9.69-1.04,14.99.86,22.63,12.67,41.01,17.76,40.81s-2.81-16.48-3.67-39.11c-.13-3.36-.09-6.67.04-9.87,7.09,4.34,13.71,9.55,19.74,15.57,13.29,13.29,22.62,29.49,27.4,47.16-1.75,16.28-11.5,37.33-8.01,37.46,2.02.08,7.1-7.35,11.44-16.8.16,2.39.25,4.79.25,7.21,0,19.38-5.16,37.96-14.83,54.18Z"/>
        </g>
      </g>
    </g>
    <text class="cls-10" transform="translate(58.53 418.83)"><tspan class="cls-17" x="0" y="0">WW</tspan><tspan class="cls-13" x="35.37" y="0">W</tspan><tspan class="cls-16" x="51.42" y="0">.</tspan><tspan class="cls-17" x="57.62" y="0">WHITETIGE</tspan><tspan class="cls-8" x="161.46" y="0">R</tspan><tspan class="cls-12" x="173.38" y="0">CYBE</tspan><tspan class="cls-15" x="219.67" y="0">R</tspan><tspan class="cls-1" x="231.81" y="0">.</tspan><tspan class="cls-8" x="238.85" y="0">C</tspan><tspan class="cls-12" x="250.61" y="0">OM</tspan></text>
  </g>
</svg>